# xmcd
#
# Track frame offsets: 
#        182
#        13772
#        28522
#        41102
#        54817
#        66062
#        78225
#        92032
#        102097
#        121130
#        134535
#        149622
#        162037
#        175942
#        187330
#        199692
#
# Disc length: 2846 seconds
#
# Revision: 5
# Processed by: cddbd v1.5.2PL0 Copyright (c) Steve Scherf et al.
# Submitted via: ExactAudioCopyFreeDBPlugin 1.0
#
DISCID=d80b1c10
DTITLE=Various Artist - Big City Blues
DYEAR=1994
DGENRE=Blues
TTITLE0=John Lee Hooker - Ground Hog Blues
TTITLE1=John Lee Hooker - Sugar Mama
TTITLE2=John Lee Hooker - Leave My Wife
TTITLE3=John Lee Hooker - Tease Me Baby
TTITLE4=Howlin' Wolf - Little Red Rooster
TTITLE5=Howlin' Wolf - Spoonful
TTITLE6=Howlin' Wolf - Smokestack
TTITLE7=Howlin' Wolf - Wang Dang Doodle
TTITLE8=Muddy Waters - Get My Mojo Working
TTITLE9=Muddy Waters - Hocchie Coockie Man
TTITLE10=Muddy Waters - She's 19 Years Old
TTITLE11=Muddy Waters - I Just Wanna
TTITLE12=Little Walter - Blues With A Feeling
TTITLE13=Little Walter - My Babe
TTITLE14=Little Walter - Juke
TTITLE15=Little Walter - Confessin' The Blues
EXTD=ID3G:   0
EXTT0=
EXTT1=
EXTT2=
EXTT3=
EXTT4=
EXTT5=
EXTT6=
EXTT7=
EXTT8=
EXTT9=
EXTT10=
EXTT11=
EXTT12=
EXTT13=
EXTT14=
EXTT15=
PLAYORDER=
